<svg xmlns="http://www.w3.org/2000/svg" viewBox="0 0 512 512" role="img" aria-hidden="true">
  <path fill="#0038a8" d="M128 96h320v160H128z"/>
  <path fill="#ce1126" d="M128 256h320v160H128z"/>
  <path fill="#fff" d="M64 96l192 160L64 416z"/>
  <circle cx="122" cy="256" r="34" fill="#fcd116"/>
  <g fill="#fcd116">
    <path d="M122 140l8.2 24.8h26.1l-21.1 15.3 8.1 24.9-21.3-15.4-21.3 15.4 8.1-24.9-21.1-15.3h26.1z"/>
    <path d="M122 307l8.2 24.8h26.1l-21.1 15.3 8.1 24.9-21.3-15.4-21.3 15.4 8.1-24.9-21.1-15.3h26.1z"/>
    <path d="M44 224l8.2 24.8h26.1l-21.1 15.3 8.1 24.9-21.3-15.4-21.3 15.4 8.1-24.9L10 248.8h26.1z"/>
  </g>
</svg>
